<?xml version="1.0" standalone="no"?>
<!DOCTYPE svg PUBLIC "-//W3C//DTD SVG 20010904//EN"
 "http://www.w3.org/TR/2001/REC-SVG-20010904/DTD/svg10.dtd">
<svg version="1.0" xmlns="http://www.w3.org/2000/svg"
 width="612.000000pt" height="612.000000pt" viewBox="0 0 612.000000 612.000000"
 preserveAspectRatio="xMidYMid meet">
<metadata>
Created by potrace 1.14, written by Peter Selinger 2001-2017
</metadata>
<g transform="translate(0.000000,612.000000) scale(0.100000,-0.100000)"
fill="#000000" stroke="none">
<path d="M1980 5614 c-8 -1 -62 -10 -119 -19 -199 -32 -432 -117 -594 -218
-284 -178 -517 -457 -638 -766 -81 -208 -113 -378 -111 -606 1 -236 50 -464
145 -667 41 -87 193 -282 328 -419 243 -246 522 -394 877 -466 135 -27 452
-24 590 5 125 27 246 65 330 103 34 15 60 24 57 19 -4 -6 -4 -10 -2 -10 10 0
126 68 187 110 l63 43 17 -21 c15 -18 20 -19 34 -9 15 11 34 -4 147 -119 119
-121 129 -135 124 -161 -5 -21 -4 -24 4 -13 8 11 9 5 4 -22 -4 -27 -1 -45 13
-65 29 -46 116 -133 126 -127 4 3 7 0 6 -8 -2 -7 4 -12 12 -10 8 2 12 0 8 -4
-11 -10 12 -35 26 -27 6 3 8 3 4 -2 -4 -4 32 -49 81 -99 49 -50 106 -109 126
-131 20 -22 41 -39 46 -38 5 2 8 -1 6 -6 -1 -5 147 -161 328 -347 182 -187
480 -493 664 -681 376 -387 348 -368 458 -313 106 53 233 210 233 288 0 28
-31 62 -300 337 -113 116 -340 350 -505 520 -292 302 -479 494 -816 838 l-164
167 -59 4 -60 4 -127 128 c-108 109 -126 131 -117 147 7 14 5 23 -7 37 -15 16
-11 24 51 116 75 111 159 279 198 398 54 165 85 455 67 636 -33 321 -137 594
-320 835 -57 75 -141 170 -141 159 0 -4 17 -26 37 -49 21 -22 5 -9 -34 29 -40
38 -70 73 -68 76 2 4 -7 18 -22 31 -14 13 -23 18 -19 12 12 -22 -2 -15 -61 31
-224 169 -494 279 -779 316 -50 7 -155 11 -233 8 -119 -3 -137 -1 -109 9 47
17 265 16 383 -2 114 -17 263 -56 348 -90 65 -27 75 -25 18 4 -61 32 -232 79
-345 96 -90 13 -349 19 -396 9z m305 -74 c235 -27 466 -107 658 -226 143 -90
332 -270 418 -400 108 -161 209 -397 251 -585 20 -90 23 -132 23 -304 0 -211
-10 -329 -26 -304 -6 9 -7 2 -2 -20 4 -22 3 -32 -4 -28 -6 4 -8 -4 -5 -20 4
-19 2 -24 -8 -18 -9 6 -11 4 -5 -4 10 -17 -15 -102 -28 -94 -6 4 -8 0 -4 -11
13 -32 -136 -350 -155 -331 -2 3 -5 -1 -5 -8 0 -21 -55 -97 -66 -90 -5 3 -7 2
-4 -4 15 -23 -234 -279 -261 -268 -9 3 -13 3 -9 -1 4 -4 -3 -18 -15 -31 -22
-23 -45 -32 -32 -12 4 8 0 8 -15 0 -25 -14 -28 -23 -3 -15 11 4 8 -1 -8 -15
-14 -11 -31 -19 -38 -16 -7 3 -10 1 -7 -5 3 -5 -3 -14 -14 -19 -29 -16 -38
-13 -15 5 18 14 18 15 -4 4 -12 -6 -20 -15 -17 -20 7 -11 -123 -78 -222 -116
-85 -32 -192 -60 -308 -82 -135 -25 -409 -22 -537 6 -343 75 -642 255 -853
512 -55 67 -57 72 -41 88 17 16 17 16 14 -3 -2 -13 5 -23 20 -30 12 -5 22 -13
22 -18 0 -4 -5 -5 -12 -1 -7 4 -8 3 -4 -5 4 -6 12 -9 17 -6 5 4 9 -1 9 -9 0
-9 3 -15 8 -15 18 3 26 -2 14 -9 -9 -6 7 -27 58 -75 38 -36 70 -60 70 -53 0
17 -45 58 -53 49 -4 -3 -7 0 -7 8 0 8 -23 42 -51 74 -28 33 -72 87 -97 120
-25 33 -51 63 -57 67 -5 4 -6 8 -2 8 5 0 -4 21 -19 48 -42 74 -77 145 -81 165
-2 10 -9 30 -17 45 -18 36 -54 159 -73 246 -8 39 -17 148 -20 241 -4 148 -2
185 18 290 12 66 23 132 23 147 1 14 3 24 5 22 3 -2 19 35 36 84 60 168 141
313 249 445 24 30 42 58 38 63 -4 4 -2 4 4 1 6 -3 42 26 80 64 76 78 154 137
274 209 44 26 76 51 72 55 -4 5 -2 5 4 2 6 -3 55 12 110 35 129 53 302 96 417
104 130 8 327 10 327 3 0 -6 79 -20 130 -23 14 0 27 -3 30 -6 12 -13 161 -49
176 -43 11 4 15 3 10 -5 -3 -6 3 -14 16 -18 13 -4 49 -19 80 -34 49 -24 56
-25 55 -11 -1 13 -8 16 -26 13 -21 -3 -23 -2 -11 8 12 10 11 11 -7 7 -13 -3
-23 -1 -23 4 0 5 -12 12 -27 15 -16 4 -36 14 -47 23 -10 9 -32 16 -50 17 -62
2 -68 4 -62 19 5 13 2 14 -15 5 -15 -8 -24 -8 -34 0 -8 7 -32 13 -52 15 -21 1
-60 8 -88 15 -27 6 -121 12 -207 13 -87 1 -158 5 -158 8 0 4 -19 0 -42 -8 -24
-8 -62 -13 -85 -11 -30 2 -43 -1 -43 -9 0 -7 -5 -13 -11 -13 -5 0 -8 4 -5 9 4
5 -3 7 -14 4 -11 -3 -20 -10 -20 -15 0 -6 -12 -7 -27 -4 -17 4 -23 3 -15 -2 8
-5 -1 -8 -25 -8 -21 1 -42 6 -46 11 -5 6 -7 3 -3 -7 3 -10 1 -20 -4 -23 -6 -4
-10 0 -11 7 0 10 -2 10 -6 1 -2 -7 -10 -13 -16 -13 -7 0 -33 -11 -60 -25 -26
-14 -47 -21 -47 -15 0 6 -4 9 -9 6 -5 -4 -12 0 -15 6 -2 7 -4 2 -3 -11 1 -13
-4 -26 -11 -28 -8 -3 -10 2 -6 14 5 17 5 17 -6 1 -6 -10 -16 -18 -23 -18 -8 0
-6 4 3 11 13 9 13 10 0 6 -8 -2 -14 -11 -12 -20 1 -8 -3 -19 -9 -23 -8 -4 -9
-3 -5 4 8 14 4 15 -18 6 -9 -3 -14 -9 -11 -13 2 -4 -10 -16 -28 -26 -31 -18
-32 -18 -17 0 8 10 10 16 3 12 -6 -4 -14 -3 -18 2 -3 6 17 22 45 36 27 14 50
29 50 34 0 15 195 90 312 120 182 47 359 60 533 41z m-967 -268 c2 -7 -2 -10
-11 -6 -8 3 -18 0 -23 -7 -5 -8 -3 -10 7 -4 19 11 -17 -22 -74 -68 -26 -21
-47 -33 -47 -27 0 6 -4 9 -10 5 -5 -3 -7 -13 -4 -23 5 -14 4 -15 -5 -2 -10 13
-15 8 -12 -12 0 -4 -7 -4 -16 -1 -9 4 -14 2 -10 -3 3 -6 -6 -23 -20 -40 l-25
-29 17 30 c17 30 15 29 -88 -84 -12 -13 -16 -21 -10 -17 9 5 11 2 7 -9 -4 -9
-12 -14 -20 -11 -14 5 -40 -21 -30 -31 3 -3 6 -1 6 5 0 7 5 12 12 12 9 0 9 -3
0 -12 -7 -7 -18 -13 -25 -13 -7 0 -12 -9 -12 -20 0 -29 -34 -75 -51 -68 -10 4
-12 0 -8 -11 3 -9 1 -16 -6 -16 -6 0 -8 -4 -5 -10 3 -5 1 -10 -4 -10 -6 0 -11
-9 -11 -21 0 -11 -4 -18 -9 -15 -5 3 -11 -8 -15 -25 -3 -17 -10 -28 -15 -25
-12 8 -19 -13 -15 -48 3 -25 1 -26 -10 -11 -12 17 -13 17 -19 1 -4 -10 -3 -15
3 -11 6 3 10 2 10 -4 0 -5 -5 -13 -10 -16 -6 -4 -8 -10 -5 -15 3 -5 1 -11 -5
-15 -5 -3 -10 -15 -10 -25 0 -11 -10 -28 -21 -39 -13 -12 -22 -33 -23 -53 -1
-18 -5 -38 -9 -45 -4 -7 -8 -29 -9 -50 0 -21 -6 -47 -12 -58 -6 -11 -11 -27
-12 -35 -1 -8 -2 -28 -3 -45 -2 -26 -4 -27 -11 -10 -5 12 -7 -11 -5 -60 2 -53
0 -73 -6 -60 -6 13 -8 2 -4 -35 3 -30 5 -86 5 -125 0 -38 4 -65 8 -59 4 7 8
-16 9 -50 1 -34 7 -74 12 -89 7 -19 7 -27 0 -27 -6 0 -3 -7 5 -16 21 -21 21
-40 -1 -23 -15 13 -15 12 -5 -8 7 -12 17 -25 22 -28 6 -4 8 -10 5 -15 -3 -5
-1 -17 4 -27 18 -34 30 -84 24 -100 -4 -10 -2 -14 4 -10 6 4 14 0 17 -9 4 -10
2 -13 -7 -8 -6 4 -1 -5 13 -21 24 -26 24 -27 3 -16 l-22 11 22 -34 c12 -18 25
-32 30 -29 4 2 7 -1 7 -6 0 -6 -4 -11 -10 -11 -5 0 -10 -5 -10 -11 0 -5 4 -8
8 -5 9 5 52 -46 52 -60 0 -4 8 -16 18 -27 9 -11 12 -18 7 -14 -6 3 -11 -3 -11
-13 0 -13 4 -16 12 -9 16 13 26 -15 11 -31 -7 -7 -7 -11 -2 -8 6 2 20 -6 32
-19 12 -13 18 -23 13 -23 -6 0 -10 -5 -10 -11 0 -6 7 -9 15 -6 20 8 28 -8 10
-23 -12 -10 -23 2 -68 72 -156 239 -233 486 -244 778 -7 197 11 321 71 505
107 322 290 581 547 771 71 53 89 60 97 36z m2339 -2637 c0 -8 -3 -13 -5 -10
-3 3 -14 -3 -24 -12 -18 -16 -25 -11 -153 117 l-135 134 28 29 27 29 131 -136
c72 -75 131 -143 131 -151z m-252 19 l129 -134 -34 -35 c-19 -19 -37 -35 -40
-35 -4 0 -65 61 -135 136 l-128 135 34 35 c18 18 35 33 38 33 4 -1 64 -62 136
-135z m501 -176 c77 -79 295 -303 484 -498 189 -195 432 -445 539 -555 547
-560 611 -629 611 -652 0 -10 -12 -31 -26 -48 -22 -27 -24 -28 -19 -7 6 19 3
23 -11 20 -13 -2 -19 3 -19 18 0 24 -73 97 -91 90 -7 -3 -10 2 -7 15 6 21 -12
27 -21 7 -4 -9 -5 -8 -5 2 2 28 -1 40 -11 40 -5 0 -7 -7 -4 -15 9 -23 -4 -18
-17 6 -8 15 -8 19 0 15 6 -4 11 -3 11 1 0 5 -9 14 -20 21 -12 7 -18 18 -13 25
5 9 3 9 -8 0 -13 -11 -20 -8 -40 15 l-24 27 26 -23 c22 -19 27 -21 32 -8 4 9
3 15 -1 13 -8 -2 -28 13 -62 47 -11 11 -24 15 -32 10 -10 -6 -10 -4 1 9 8 11
9 17 2 17 -6 0 -13 11 -17 25 -5 22 -9 24 -22 13 -13 -11 -15 -10 -10 10 4 12
2 20 -2 17 -5 -3 -14 0 -20 7 -6 7 -18 22 -28 33 -9 11 -29 28 -44 38 -16 10
-28 22 -28 29 0 6 -34 45 -75 87 -41 42 -103 105 -138 141 -34 36 -71 71 -82
78 -11 7 -15 10 -8 7 6 -3 14 -1 18 5 3 5 -1 10 -9 10 -18 0 -66 43 -66 59 0
7 -4 9 -10 6 -5 -3 -10 -2 -10 4 0 5 -14 22 -31 38 -17 15 -39 36 -48 46 -9
11 -53 58 -99 105 -116 121 -113 117 -115 140 0 11 -5 18 -9 16 -5 -3 -6 -9
-3 -14 3 -5 1 -12 -5 -15 -6 -4 -9 -2 -8 3 2 5 -14 27 -34 50 -21 23 -38 40
-38 37 0 -3 -15 11 -32 31 -18 21 -32 41 -31 45 2 5 -4 6 -12 3 -11 -5 -14 -2
-9 12 4 11 3 16 -1 11 -11 -10 -56 33 -48 46 4 7 -1 8 -12 3 -16 -6 -16 -4 -4
11 9 11 10 14 2 9 -7 -4 -13 -3 -13 3 0 6 -6 8 -14 5 -9 -3 -17 3 -21 15 -3
12 -11 21 -16 21 -6 0 -7 5 -3 12 5 8 2 9 -11 4 -16 -6 -16 -4 -4 11 8 9 9 14
2 10 -12 -7 -77 49 -78 68 -1 6 -7 9 -14 7 -9 -2 -11 3 -7 13 3 9 2 14 -3 11
-4 -3 -19 6 -32 21 -13 14 -18 23 -10 18 10 -6 12 -4 7 4 -5 7 -14 10 -22 7
-8 -3 -13 -2 -13 2 3 20 -2 32 -13 30 -7 -2 -12 3 -10 10 1 6 -5 12 -14 12 -8
0 -12 5 -9 10 3 6 -1 10 -10 10 -9 0 -14 4 -11 9 7 11 -22 23 -35 16 -5 -4 -6
1 -3 9 3 9 10 13 15 10 5 -3 6 2 3 10 -5 12 -9 11 -26 -6 -11 -11 -22 -18 -24
-15 -9 9 31 67 46 67 9 0 79 -64 156 -142z m-386 -108 c-13 -9 -7 -14 12 -11
4 0 5 -6 2 -14 -4 -10 -2 -13 7 -10 8 3 23 -7 34 -22 11 -15 28 -35 38 -45 10
-10 15 -24 11 -30 -4 -6 -3 -8 4 -5 14 9 39 -1 46 -19 4 -10 2 -12 -6 -8 -7 4
-8 3 -4 -4 4 -7 14 -12 22 -12 8 0 14 -7 14 -15 0 -8 6 -14 13 -12 6 1 11 -4
10 -10 -2 -7 4 -13 12 -13 8 0 15 -6 15 -14 0 -7 9 -16 21 -19 12 -3 18 -10
15 -15 -3 -5 1 -15 9 -22 8 -7 15 -9 15 -5 0 4 15 -7 32 -26 18 -19 32 -39 30
-46 -2 -8 3 -10 13 -7 10 4 15 0 15 -10 0 -9 7 -16 16 -16 8 0 12 -4 9 -10 -3
-5 0 -10 7 -10 15 0 48 -35 48 -50 0 -6 3 -9 8 -8 4 2 8 -1 9 -6 1 -4 15 -17
32 -27 17 -10 31 -26 31 -34 0 -9 16 -25 35 -36 19 -12 35 -24 35 -28 0 -14
37 -51 50 -51 7 0 10 -7 7 -14 -4 -11 -1 -13 10 -9 12 5 14 1 9 -14 -5 -16 -2
-21 10 -19 9 0 19 -5 22 -13 3 -9 0 -11 -8 -6 -9 5 -11 4 -6 -4 4 -6 16 -9 27
-6 14 5 19 1 20 -12 0 -10 30 -44 65 -75 35 -32 61 -58 58 -58 -3 0 8 -11 25
-25 16 -14 33 -35 36 -45 4 -11 13 -20 20 -20 19 0 65 -47 65 -65 0 -8 6 -15
14 -15 8 0 26 -13 39 -30 14 -16 32 -30 39 -30 9 0 9 -3 -2 -10 -10 -6 -11
-10 -3 -10 23 0 166 -147 158 -160 -5 -8 -4 -11 3 -6 15 9 156 -130 146 -145
-5 -8 -3 -9 5 -4 15 9 76 -50 76 -74 0 -9 7 -16 15 -16 16 0 64 -44 66 -60 0
-5 4 -18 9 -28 6 -14 10 -15 15 -6 6 9 16 4 35 -17 15 -16 32 -28 38 -26 6 2
4 -5 -4 -14 -8 -10 -9 -15 -3 -11 12 7 101 -70 96 -84 -1 -5 1 -8 5 -7 5 0 16
-2 25 -6 18 -8 58 9 58 24 0 6 6 10 13 10 17 -1 -59 -67 -86 -74 -26 -7 -70
37 -1033 1029 -176 182 -374 385 -439 453 -351 361 -353 363 -322 375 21 9 33
7 17 -3z"/>
<path d="M2842 5328 c-8 -8 13 -25 78 -64 138 -81 283 -207 369 -319 73 -95
138 -195 168 -257 17 -36 37 -69 42 -73 14 -8 -55 131 -80 164 -10 13 -16 28
-12 34 3 6 1 7 -5 3 -8 -5 -12 1 -12 14 0 14 -4 19 -12 14 -8 -5 -9 -2 -5 10
4 9 3 15 -2 12 -4 -3 -16 13 -27 35 -10 23 -29 48 -41 56 -13 9 -22 18 -19 20
6 7 -97 112 -104 108 -8 -5 -40 32 -34 39 2 3 1 4 -2 2 -9 -7 -33 18 -26 28 3
5 1 6 -5 3 -13 -8 -55 22 -47 34 3 5 -8 15 -25 22 -17 7 -28 17 -24 21 4 4 -1
4 -11 0 -13 -5 -17 -4 -12 4 5 8 1 10 -10 5 -12 -4 -15 -3 -10 6 4 6 4 11 -1
10 -14 -4 -43 13 -38 21 3 5 -4 6 -15 3 -12 -3 -20 0 -20 6 0 7 5 9 12 5 7 -4
8 -3 4 5 -4 6 -11 9 -16 6 -12 -7 -41 5 -35 15 8 14 -11 20 -23 8z"/>
</g>
</svg>
