<?xml version="1.0" standalone="no"?>
<!DOCTYPE svg PUBLIC "-//W3C//DTD SVG 20010904//EN"
 "http://www.w3.org/TR/2001/REC-SVG-20010904/DTD/svg10.dtd">
<svg version="1.0" xmlns="http://www.w3.org/2000/svg"
 width="612.000000pt" height="612.000000pt" viewBox="0 0 612.000000 612.000000"
 preserveAspectRatio="xMidYMid meet">
<metadata>
Created by potrace 1.15, written by Peter Selinger 2001-2017
</metadata>
<g transform="translate(0.000000,612.000000) scale(0.100000,-0.100000)"
fill="#000000" stroke="none">
<path d="M1739 5685 c-216 -35 -391 -98 -569 -203 -86 -52 -223 -156 -260
-198 -17 -20 -12 -17 15 8 56 51 194 148 211 148 8 0 14 5 14 10 0 6 3 9 8 8
4 -1 21 6 39 15 18 9 41 17 53 17 11 0 20 3 20 8 0 8 28 18 183 67 191 61 258
70 497 70 184 -1 230 -4 317 -23 587 -127 1036 -580 1159 -1167 27 -129 27
-471 0 -600 -51 -244 -175 -500 -332 -685 -59 -71 -244 -261 -244 -252 0 4 -8
-2 -18 -14 -22 -27 -99 -79 -187 -126 -38 -21 -67 -38 -62 -38 20 0 182 89
266 147 l94 65 103 -103 c57 -57 104 -111 104 -119 0 -20 87 -106 97 -97 4 4
30 -15 59 -44 l51 -51 -21 -38 -21 -39 130 -133 c318 -326 668 -685 1354
-1390 350 -361 500 -508 515 -508 48 0 254 151 259 190 2 8 6 21 10 27 4 7 3
21 -2 30 -15 26 -1976 1983 -1987 1983 -6 0 -30 -20 -54 -45 -24 -24 -47 -42
-51 -39 -4 2 -22 -4 -39 -15 l-32 -19 -54 59 c-30 32 -54 61 -54 63 0 2 12 11
26 21 l26 17 59 -58 59 -58 31 30 31 31 -56 57 c-31 32 -56 61 -56 64 1 4 11
20 24 36 l24 29 28 -21 c16 -11 44 -35 61 -54 l33 -34 -26 -38 c-21 -30 -22
-36 -7 -28 21 12 62 55 86 92 10 13 17 20 17 14 0 -16 97 -113 106 -106 4 4 4
-1 1 -10 -4 -11 -2 -18 5 -18 6 0 30 -19 52 -42 23 -23 34 -39 26 -35 -8 4 -6
2 5 -5 10 -7 419 -412 908 -899 l889 -887 -17 -32 c-24 -45 -13 -47 18 -3 34
49 51 98 40 116 -4 8 -195 196 -423 418 -558 543 -1482 1440 -1550 1506 l-56
53 -36 -19 -37 -18 -50 51 c-28 29 -51 56 -51 62 0 13 -85 96 -91 90 -3 -3
-54 44 -114 104 l-108 109 50 73 c185 269 277 567 276 893 -2 432 -164 812
-475 1111 -217 208 -468 341 -765 404 -128 28 -409 36 -534 15z m1547 -2656
c49 -49 95 -89 100 -89 5 0 29 -20 53 -44 43 -43 44 -46 28 -68 -48 -68 -40
-67 -109 -3 -96 90 -248 249 -248 259 0 6 10 20 21 32 29 31 41 24 155 -87z
m-140 -121 c57 -56 104 -107 104 -113 0 -6 20 -31 45 -55 42 -41 44 -45 29
-62 -32 -34 -51 -31 -95 14 -24 24 -42 50 -41 58 1 8 -38 55 -88 105 -49 49
-90 95 -90 102 0 7 -5 13 -12 13 -6 0 -3 9 7 20 10 11 23 20 28 20 5 0 56 -46
113 -102z"/>
<path d="M2416 5541 c-4 -6 9 -13 28 -16 19 -4 42 -15 51 -25 15 -17 10 -16
-52 5 -37 13 -84 26 -103 29 -19 4 6 -7 55 -24 133 -45 319 -141 415 -214 228
-171 415 -427 503 -686 75 -221 96 -513 52 -739 -5 -24 -5 -24 4 -4 6 13 13
46 17 75 9 74 23 95 25 38 l1 -45 10 40 c17 70 4 397 -20 501 -84 360 -272
645 -577 871 -79 59 -292 170 -345 179 -19 4 -40 11 -47 16 -7 5 -14 5 -17 -1z"/>
<path d="M1215 5376 c-232 -123 -383 -263 -517 -478 -126 -203 -194 -428 -205
-683 -19 -437 144 -844 458 -1139 293 -276 662 -411 1068 -393 258 12 464 78
661 210 69 47 220 165 220 173 0 2 -43 -28 -95 -66 -161 -116 -361 -205 -555
-247 -121 -26 -449 -26 -570 0 -807 172 -1301 973 -1091 1768 62 234 186 448
363 628 97 98 164 151 279 221 79 48 97 60 88 60 -2 0 -49 -24 -104 -54z"/>
<path d="M423 4323 c-79 -732 365 -1420 1061 -1647 44 -15 85 -24 90 -22 6 2
5 5 -2 5 -23 2 -221 82 -228 93 -3 5 7 3 22 -5 37 -18 84 -31 107 -28 9 1 17
-1 17 -6 0 -4 19 -9 43 -11 38 -2 35 1 -39 27 -425 151 -751 460 -918 871 -68
166 -105 374 -107 600 -1 99 -3 124 -9 95 -30 -146 -29 -145 -25 -17 2 67 2
122 0 122 -2 0 -7 -35 -12 -77z"/>
</g>
</svg>
