<?xml version="1.0" encoding="UTF-8" standalone="no"?>
<!-- Created with Inkscape (http://www.inkscape.org/) -->

<svg
   xmlns:dc="http://purl.org/dc/elements/1.1/"
   xmlns:cc="http://creativecommons.org/ns#"
   xmlns:rdf="http://www.w3.org/1999/02/22-rdf-syntax-ns#"
   xmlns:svg="http://www.w3.org/2000/svg"
   xmlns="http://www.w3.org/2000/svg"
   xmlns:sodipodi="http://sodipodi.sourceforge.net/DTD/sodipodi-0.dtd"
   xmlns:inkscape="http://www.inkscape.org/namespaces/inkscape"
   width="500"
   height="400"
   viewBox="0 0 500.00001 400.00001"
   id="svg2"
   version="1.1"
   inkscape:version="0.91 r13725"
   sodipodi:docname="Beaker.svg">
  <defs
     id="defs4" />
  <sodipodi:namedview
     id="base"
     pagecolor="#ffffff"
     bordercolor="#666666"
     borderopacity="1.0"
     inkscape:pageopacity="0.0"
     inkscape:pageshadow="2"
     inkscape:zoom="2.1103574"
     inkscape:cx="309.0847"
     inkscape:cy="267.92146"
     inkscape:document-units="px"
     inkscape:current-layer="g4207"
     showgrid="false"
     units="px"
     inkscape:window-width="1366"
     inkscape:window-height="705"
     inkscape:window-x="-8"
     inkscape:window-y="-8"
     inkscape:window-maximized="1" />
  <metadata
     id="metadata7">
    <rdf:RDF>
      <cc:Work
         rdf:about="">
        <dc:format>image/svg+xml</dc:format>
        <dc:type
           rdf:resource="http://purl.org/dc/dcmitype/StillImage" />
        <dc:title></dc:title>
      </cc:Work>
    </rdf:RDF>
  </metadata>
  <g
     inkscape:label="Layer 1"
     inkscape:groupmode="layer"
     id="layer1"
     transform="translate(0,-652.36216)">
    <g
       id="g4207"
       transform="translate(-7.4441505,14.463876)">
      <path
         style="fill:#00bfff;fill-opacity:0.60248449;stroke:#000000;stroke-opacity:1"
         d="m 272.73087,945.46394 c -24.96143,-2.25016 -52.15699,-3.50678 -73.14526,-18.76001 -10.95272,-7.46738 -5.89528,-22.44379 -7.4342,-33.65898 -0.70945,-71.61745 -0.86151,-143.23934 -1.29555,-214.85892 -1.70212,-3.14076 -10.43888,-7.12812 -4.18921,-9.31189 18.89782,-6.63591 39.51343,-6.13818 59.29277,-7.86675 52.81949,-2.44654 105.93293,-1.88859 158.52091,3.85833 4.62095,1.00404 22.15597,2.87193 14.14442,9.12608 -4.61747,2.82374 -4.31036,7.64083 -4.06164,12.43427 -0.40241,77.56959 -0.80483,155.13917 -1.20725,232.70876 -15.76175,18.91196 -42.03869,21.84447 -64.97659,24.77529 -25.11924,2.59733 -50.44665,3.48272 -75.6484,1.55382 z m 76.60064,-3.05808 c 20.44422,-2.45784 42.25163,-5.63998 58.78867,-18.9157 5.58361,-13.37522 3.02988,-28.66464 4.11595,-42.85187 0.85833,-68.1218 -0.0858,-136.29628 2.26966,-204.38302 -5.52099,-2.19742 -23.09849,3.52968 -32.94807,2.89957 -49.10138,3.79612 -98.44814,2.38436 -147.6225,0.95659 -7.30239,-0.26434 -14.56142,-1.11106 -21.82935,-1.8145 -1.39081,2.79012 -10.47367,6.7375 -6.04682,8.65238 5.42798,3.79752 4.75786,9.92416 0.31335,1.82641 -12.76204,7.21765 -8.78929,-9.87765 -15.5426,-14.33736 2.58738,21.87006 1.15588,44.27402 1.78634,66.35797 0.53636,57.36682 -0.65402,114.76182 0.92807,172.10969 0.3885,13.63197 16.1102,18.63075 26.7808,22.55131 36.38137,11.3322 74.93285,8.6213 112.48651,8.0483 5.51303,-0.23958 11.03313,-0.48915 16.51999,-1.09977 z M 199.60586,688.02283 c -3.7745,-4.17217 -0.34235,4.35579 0,0 z m 4.82948,-7.61144 c 1.87581,-5.27996 6.15765,-5.63326 11.06239,-4.71107 55.37869,2.47196 110.8813,1.9358 166.27546,0.29811 9.41489,-1.63536 27.95722,-0.24182 31.51714,-6.1859 -24.65677,-5.06154 -50.13283,-4.29785 -75.20131,-5.36319 -45.94694,-0.41989 -92.12193,-1.39809 -137.85816,3.71001 -6.77108,0.3671 -13.26685,3.28061 -3.18336,5.87585 2.77347,4.64573 0.0155,18.40282 7.38784,6.37619 z m 4.54553,-1.76356 c 7.04164,-8.28022 -8.68185,7.73184 0,0 z m -20.00001,-8.125 c -3.36565,-5.03748 -2.94582,4.86674 0,0 z m 230,0 c -3.36565,-5.03748 -2.94582,4.86674 0,0 z m -147.81249,-8.41059 c -7.7231,-0.85198 -14.2761,0.85321 -2.89993,0.48032 0.73991,10e-4 5.81237,-0.0497 2.89993,-0.48032 z m 72.5,0 c -7.7231,-0.85198 -14.2761,0.85321 -2.89993,0.48032 0.73991,10e-4 5.81237,-0.0497 2.89993,-0.48032 z"
         id="path4223"
         inkscape:connector-curvature="0" />
    </g>
  </g>
</svg>
